<svg width="54" height="54" viewBox="0 0 54 54" fill="none" xmlns="http://www.w3.org/2000/svg">
<g clip-path="url(#clip0_5058_225)">
<path d="M27.776 15.9673V8.26416C27.776 7.81309 28.1413 7.44775 28.5924 7.44775C29.0435 7.44775 29.4088 7.81309 29.4088 8.26416V15.9673C29.4088 16.3093 29.5449 16.6375 29.7867 16.8794C30.0286 17.1212 30.3568 17.2573 30.6989 17.2573H37.6803C38.1311 17.2576 38.4967 17.6228 38.4967 18.0737C38.4967 18.5246 38.1311 18.8899 37.6803 18.8901H30.6989C29.9236 18.8901 29.1797 18.5829 28.6315 18.0347C28.0833 17.4865 27.776 16.7425 27.776 15.9673Z" fill="#0073BB"/>
<path d="M8.39752 40.3809V11.1729C8.39752 9.8525 8.91579 8.58382 9.84186 7.64746C10.7682 6.71089 12.0269 6.18359 13.3409 6.18359H26.5479C27.5571 6.18359 28.5248 6.58713 29.2344 7.30469L37.8262 15.9922C38.5255 16.6994 38.918 17.6538 38.918 18.6484V26.5654C38.9179 27.0164 38.5516 27.3818 38.1006 27.3818C37.6499 27.3816 37.2844 27.0162 37.2842 26.5654V18.6484C37.2842 18.0838 37.0612 17.5421 36.6641 17.1406L28.0723 8.45312C27.6695 8.046 27.1206 7.81641 26.5479 7.81641H13.3409C12.4659 7.81641 11.6244 8.16851 11.003 8.79688C10.3815 9.42551 10.0303 10.2801 10.0303 11.1729V40.3809C10.0304 41.2736 10.3814 42.1282 11.003 42.7568C11.6244 43.3852 12.4659 43.7363 13.3409 43.7363H26.9737C27.4248 43.7363 27.7901 44.1026 27.7901 44.5537C27.7899 45.0046 27.4246 45.3701 26.9737 45.3701H13.3409C12.0269 45.3701 10.7682 44.8419 9.84186 43.9053C8.91591 42.969 8.39757 41.7011 8.39752 40.3809Z" fill="#0073BB"/>
<path d="M26.9733 25.314C27.4243 25.314 27.7906 25.6793 27.7906 26.1304C27.7906 26.5814 27.4243 26.9468 26.9733 26.9468H13.9303C13.4792 26.9468 13.1139 26.5814 13.1139 26.1304C13.1139 25.6793 13.4792 25.314 13.9303 25.314H26.9733Z" fill="#0073BB"/>
<path d="M22.6256 32.2705C23.0767 32.2705 23.443 32.6358 23.443 33.0869C23.443 33.538 23.0767 33.9033 22.6256 33.9033H13.9303C13.4792 33.9033 13.1139 33.538 13.1139 33.0869C13.1139 32.6358 13.4792 32.2705 13.9303 32.2705H22.6256Z" fill="#0073BB"/>
<path d="M26.9733 18.3574C27.4243 18.3574 27.7906 18.7228 27.7906 19.1738C27.7906 19.6249 27.4243 19.9902 26.9733 19.9902H13.9303C13.4792 19.9902 13.1139 19.6249 13.1139 19.1738C13.1139 18.7228 13.4792 18.3574 13.9303 18.3574H26.9733Z" fill="#0073BB"/>
<path d="M35.5201 27.0522C36.8656 27.0523 38.1976 27.3215 39.44 27.8442C40.6825 28.367 41.8107 29.1334 42.7603 30.0981C43.7098 31.0627 44.4629 32.2068 44.9761 33.4653C45.4894 34.724 45.7535 36.0734 45.7535 37.4351C45.7534 38.7966 45.4893 40.1452 44.9761 41.4038C44.4629 42.6625 43.7099 43.8073 42.7603 44.772C41.8107 45.7366 40.6824 46.5021 39.44 47.0249C38.1976 47.5477 36.8657 47.8169 35.5201 47.8169C34.1744 47.8169 32.8417 47.5477 31.5992 47.0249C30.357 46.5022 29.2293 45.7364 28.2798 44.772C27.3302 43.8073 26.5773 42.6625 26.064 41.4038C25.5508 40.1452 25.2867 38.7967 25.2867 37.4351C25.2867 36.0734 25.5508 34.724 26.064 33.4653C26.5773 32.2067 27.3303 31.0627 28.2798 30.0981C29.2294 29.1335 30.3569 28.367 31.5992 27.8442C32.8417 27.3214 34.1744 27.0522 35.5201 27.0522Z" stroke="#EB9AA7" stroke-width="1.63477" stroke-linecap="round" stroke-linejoin="round"/>
<path d="M31.7543 35.3098H31.7671" stroke="#EB9AA7" stroke-width="1.91303" stroke-linecap="round" stroke-linejoin="round"/>
<path d="M39.2982 35.3098H39.311" stroke="#EB9AA7" stroke-width="1.91303" stroke-linecap="round" stroke-linejoin="round"/>
<path d="M32.7094 41.906C33.086 41.3831 33.5357 40.9678 34.0319 40.6842C34.5281 40.4007 35.0609 40.2546 35.5992 40.2546C36.1374 40.2546 36.6703 40.4007 37.1665 40.6842C37.6627 40.9678 38.1123 41.3831 38.489 41.906" stroke="#EB9AA7" stroke-width="1.43478" stroke-linecap="round" stroke-linejoin="round"/>
</g>
<defs>
<clipPath id="clip0_5058_225">
<rect width="54" height="54" fill="white"/>
</clipPath>
</defs>
</svg>
